<svg version="1.1" id="Layer_1" xmlns="http://www.w3.org/2000/svg" xmlns:xlink="http://www.w3.org/1999/xlink" x="0px" y="0px"
	 width="100%" viewBox="0 0 500 500" enable-background="new 0 0 500 500" xml:space="preserve">
<path fill="#FFF6EA" opacity="1.000000" stroke="none" 
	d="
M278.000000,501.000000 
	C185.333359,501.000000 93.166710,501.000000 1.000049,501.000000 
	C1.000033,334.333405 1.000033,167.666794 1.000016,1.000139 
	C167.666565,1.000093 334.333130,1.000093 500.999756,1.000046 
	C500.999847,167.666519 500.999847,334.333038 500.999939,500.999786 
	C426.833344,501.000000 352.666656,501.000000 278.000000,501.000000 
M74.353340,294.499939 
	C74.357964,301.325592 74.192635,308.156799 74.415054,314.975342 
	C74.637131,321.783142 79.512978,325.119049 85.617035,322.367615 
	C94.072845,318.556152 102.165276,318.605011 110.616768,322.400085 
	C116.627686,325.099213 121.933479,321.566071 121.949364,314.981720 
	C122.040138,277.357635 122.104225,239.732452 121.885376,202.109344 
	C121.821541,191.136215 113.080589,181.401367 103.061462,179.938065 
	C86.133163,177.465683 74.400627,187.488358 74.369896,204.599640 
	C74.316681,234.232986 74.354233,263.866486 74.353340,294.499939 
M239.140610,299.499390 
	C239.140610,290.502930 239.145935,281.506470 239.139557,272.510010 
	C239.122787,248.852844 239.280426,225.193619 239.008835,201.539337 
	C238.863007,188.837051 228.133072,179.489624 214.775909,179.675095 
	C201.756378,179.855881 191.966507,189.505707 191.955795,202.314865 
	C191.924500,239.800171 191.928970,277.285522 191.957687,314.770844 
	C191.962952,321.622284 196.657410,325.145813 202.821930,322.389587 
	C211.291565,318.602722 219.365738,318.547394 227.850113,322.305756 
	C234.253006,325.142059 238.991547,321.630554 239.120468,314.493134 
	C239.204697,309.829803 239.139160,305.163727 239.140610,299.499390 
M132.993317,275.949707 
	C132.993179,288.276978 132.944412,300.604492 133.011581,312.931396 
	C133.050446,320.063446 138.910202,323.604950 144.888275,319.844299 
	C153.092041,314.683563 160.934967,314.511078 169.190826,319.705780 
	C175.292419,323.545013 181.305862,320.456909 181.483353,313.274994 
	C181.791901,300.789642 181.804626,288.284363 181.463501,275.800507 
	C181.274261,268.875519 175.265366,265.796631 169.452103,269.471130 
	C161.255859,274.651855 153.358643,274.781097 145.122818,269.623779 
	C139.348160,266.007629 134.626724,268.272339 132.993317,275.949707 
M393.880981,211.347046 
	C401.332581,205.541367 408.784180,199.735687 416.319855,193.864502 
	C417.958344,195.899246 419.235504,197.649902 420.681335,199.247955 
	C424.120728,203.049408 427.204163,202.480453 428.629333,197.674194 
	C430.377411,191.778687 431.932129,185.824234 433.483154,179.872528 
	C434.406250,176.330383 432.840790,174.209213 429.265686,174.224182 
	C422.616486,174.252014 415.953766,174.413376 409.326385,174.912933 
	C405.877136,175.172943 404.679504,178.124435 406.535828,181.058136 
	C407.927856,183.258087 409.600067,185.280762 411.294342,187.581680 
	C391.581696,202.954163 372.194183,218.139603 352.657654,233.130829 
	C351.570984,233.964691 348.915558,233.809982 347.557800,233.071716 
	C333.824951,225.604614 320.089783,218.123901 306.637878,210.169098 
	C302.714111,207.848801 300.360229,208.689713 297.735168,211.518082 
	C282.782104,227.629120 267.821075,243.732697 252.857315,259.833771 
	C250.872040,261.969940 249.510254,264.211670 252.175537,266.719360 
	C254.974289,269.352692 256.964630,267.407684 258.877563,265.335724 
	C264.864380,258.851196 270.847595,252.363281 276.853546,245.896500 
	C285.556061,236.526245 294.277191,227.173309 303.126587,217.666687 
	C319.513672,226.818756 335.579865,235.791595 351.320221,244.582474 
	C365.543213,233.489334 379.440430,222.650253 393.880981,211.347046 
M248.537415,291.515045 
	C248.540558,298.834869 248.562180,306.154785 248.538910,313.474518 
	C248.527542,317.051025 249.857269,319.084412 253.824188,319.041138 
	C263.804596,318.932343 273.787109,318.975922 283.768524,319.018402 
	C287.082092,319.032471 288.700073,317.448730 288.761810,314.199921 
	C288.826782,310.776917 287.341675,308.911682 283.698547,308.957001 
	C277.876862,309.029419 272.053558,308.961243 266.230988,308.973022 
	C263.496887,308.978577 260.670227,308.366730 261.286896,305.108582 
	C261.546997,303.734192 264.440308,302.108063 266.268036,301.927765 
	C270.881439,301.472656 275.571289,301.690704 280.226868,301.797363 
	C283.911255,301.881744 286.513855,300.836914 286.478943,296.612335 
	C286.445312,292.539917 283.845551,291.814117 280.410614,291.909271 
	C275.589935,292.042816 270.729156,292.263336 265.955872,291.768311 
	C264.209534,291.587219 262.664154,289.468201 261.027100,288.233246 
	C262.711884,287.085358 264.331451,285.081970 266.093536,284.947571 
	C271.717255,284.518646 277.394257,284.746857 283.050049,284.794250 
	C286.655212,284.824432 288.754761,283.352325 288.772705,279.533234 
	C288.789734,275.907745 286.714966,274.502747 283.387665,274.495605 
	C273.572723,274.474548 263.757721,274.487549 253.942749,274.473846 
	C250.204437,274.468628 248.492111,276.351257 248.541595,280.042969 
	C248.588440,283.535797 248.543121,287.029846 248.537415,291.515045 
M146.603622,228.876526 
	C144.348953,230.071854 142.215424,231.695343 139.814728,232.374527 
	C134.609650,233.847092 133.087692,235.804733 132.954575,241.701614 
	C132.842407,246.671387 134.899567,249.630417 139.913132,250.286026 
	C144.653732,250.905960 147.288513,253.387756 147.942917,258.287445 
	C148.630402,263.434906 150.874374,264.986206 156.552704,265.008820 
	C162.462418,265.032349 165.106323,263.386322 165.699020,258.207672 
	C166.249405,253.398666 168.716095,251.205505 173.179260,250.321045 
	C179.020981,249.163376 180.347763,247.395844 180.356598,241.527252 
	C180.365768,235.429291 178.894760,233.417984 172.908264,232.370209 
	C168.743088,231.641205 166.467957,229.603165 165.808899,225.333984 
	C164.858780,219.179382 162.990356,217.878632 156.257507,217.925568 
	C150.332077,217.966873 148.883591,219.245819 147.781433,225.308502 
	C147.604568,226.281326 147.239548,227.219971 146.603622,228.876526 
M348.818420,291.117676 
	C346.283356,286.941101 347.164978,284.966614 351.897797,284.834656 
	C357.886230,284.667633 363.882629,284.795227 369.875549,284.774597 
	C373.064453,284.763641 374.806641,283.287354 374.931000,279.949615 
	C375.061249,276.454468 373.536652,274.506744 370.017426,274.504303 
	C362.364288,274.498993 354.687195,274.262238 347.064423,274.778229 
	C339.076508,275.318878 334.854065,280.465027 334.956543,288.391541 
	C335.055786,296.069183 339.764008,301.112305 347.606659,301.692963 
	C350.753265,301.925964 353.929352,301.777802 357.091949,301.773010 
	C359.747528,301.768982 362.739777,302.049622 362.120117,305.461670 
	C361.862610,306.879730 359.003082,308.670166 357.212494,308.808228 
	C351.585724,309.242157 345.903412,309.044403 340.245087,308.947052 
	C336.807434,308.887909 334.950500,310.095001 334.902649,313.824951 
	C334.852081,317.761597 336.708527,319.110077 340.426483,319.043915 
	C347.582550,318.916534 354.745453,319.129211 361.899689,318.957336 
	C369.752655,318.768738 374.879150,313.323395 374.900330,305.495392 
	C374.921600,297.648132 369.830719,292.305542 361.973389,291.975952 
	C357.828156,291.802063 353.680237,291.691864 348.818420,291.117676 
M324.608429,313.981171 
	C329.619446,303.314240 328.833282,292.251801 325.470734,281.576050 
	C324.558807,278.680817 319.767853,275.960907 316.297791,275.165680 
	C311.220734,274.002167 305.728973,274.548492 300.414368,274.560699 
	C297.448181,274.567535 295.918976,276.196106 295.932983,279.317596 
	C295.985291,290.964447 295.963440,302.611725 295.951141,314.258820 
	C295.947601,317.625000 297.691681,319.047089 300.941559,319.012329 
	C305.100739,318.967834 309.368164,319.577698 313.389038,318.830231 
	C317.099243,318.140533 320.545349,316.029907 324.608429,313.981171 
M413.921204,289.852600 
	C413.663635,285.849579 415.817627,284.598846 419.479309,284.756927 
	C422.635651,284.893188 425.809387,284.877594 428.964661,284.717316 
	C432.042938,284.560974 433.167664,282.669891 433.186737,279.681274 
	C433.205688,276.716278 432.203735,274.632874 429.073029,274.612732 
	C423.426849,274.576385 417.732544,274.443512 412.144318,275.091888 
	C406.509216,275.745667 402.382812,280.137299 402.029724,285.866364 
	C401.590881,292.986267 401.542938,300.174286 401.985992,307.291809 
	C402.401794,313.971222 407.456696,318.539154 414.158997,318.905060 
	C418.972931,319.167877 423.811310,318.974213 428.638672,319.002716 
	C431.761200,319.021149 433.170013,317.458374 433.148834,314.374176 
	C433.108795,308.547943 433.435303,302.695862 432.943970,296.911041 
	C432.806274,295.289612 430.561584,292.897675 428.908813,292.526459 
	C423.180206,291.239624 421.079041,293.309448 421.039856,299.304016 
	C421.028992,300.968689 421.486389,302.817444 420.908295,304.250732 
	C420.212738,305.975189 418.641266,307.346375 417.449036,308.870514 
	C416.275208,307.337097 414.263580,305.892944 414.088806,304.253082 
	C413.615143,299.808411 413.920990,295.280731 413.921204,289.852600 
M382.154572,278.213745 
	C382.128113,289.853699 382.202240,301.495209 382.026001,313.132904 
	C381.954803,317.835785 384.201385,319.069183 388.491486,319.098358 
	C392.900818,319.128265 394.323944,317.289276 394.259766,313.091888 
	C394.097107,302.451355 394.346497,291.803284 394.088043,281.166534 
	C394.036713,279.052948 392.948486,275.719086 391.479675,275.144989 
	C388.430145,273.953064 384.537445,273.246765 382.154572,278.213745 
z"/>
<path fill="#D86B27" opacity="1.000000" stroke="none" 
	d="
M74.353531,293.999939 
	C74.354233,263.866486 74.316681,234.232986 74.369896,204.599640 
	C74.400627,187.488358 86.133163,177.465683 103.061462,179.938065 
	C113.080589,181.401367 121.821541,191.136215 121.885376,202.109344 
	C122.104225,239.732452 122.040138,277.357635 121.949364,314.981720 
	C121.933479,321.566071 116.627686,325.099213 110.616768,322.400085 
	C102.165276,318.605011 94.072845,318.556152 85.617035,322.367615 
	C79.512978,325.119049 74.637131,321.783142 74.415054,314.975342 
	C74.192635,308.156799 74.357964,301.325592 74.353531,293.999939 
z"/>
<path fill="#D86A25" opacity="1.000000" stroke="none" 
	d="
M239.140656,299.999146 
	C239.139160,305.163727 239.204697,309.829803 239.120468,314.493134 
	C238.991547,321.630554 234.253006,325.142059 227.850113,322.305756 
	C219.365738,318.547394 211.291565,318.602722 202.821930,322.389587 
	C196.657410,325.145813 191.962952,321.622284 191.957687,314.770844 
	C191.928970,277.285522 191.924500,239.800171 191.955795,202.314865 
	C191.966507,189.505707 201.756378,179.855881 214.775909,179.675095 
	C228.133072,179.489624 238.863007,188.837051 239.008835,201.539337 
	C239.280426,225.193619 239.122787,248.852844 239.139557,272.510010 
	C239.145935,281.506470 239.140610,290.502930 239.140656,299.999146 
z"/>
<path fill="#D96C28" opacity="1.000000" stroke="none" 
	d="
M132.995056,275.505249 
	C134.626724,268.272339 139.348160,266.007629 145.122818,269.623779 
	C153.358643,274.781097 161.255859,274.651855 169.452103,269.471130 
	C175.265366,265.796631 181.274261,268.875519 181.463501,275.800507 
	C181.804626,288.284363 181.791901,300.789642 181.483353,313.274994 
	C181.305862,320.456909 175.292419,323.545013 169.190826,319.705780 
	C160.934967,314.511078 153.092041,314.683563 144.888275,319.844299 
	C138.910202,323.604950 133.050446,320.063446 133.011581,312.931396 
	C132.944412,300.604492 132.993179,288.276978 132.995056,275.505249 
z"/>
<path fill="#07C5CD" opacity="1.000000" stroke="none" 
	d="
M393.609314,211.579102 
	C379.440430,222.650253 365.543213,233.489334 351.320221,244.582474 
	C335.579865,235.791595 319.513672,226.818756 303.126587,217.666687 
	C294.277191,227.173309 285.556061,236.526245 276.853546,245.896500 
	C270.847595,252.363281 264.864380,258.851196 258.877563,265.335724 
	C256.964630,267.407684 254.974289,269.352692 252.175537,266.719360 
	C249.510254,264.211670 250.872040,261.969940 252.857315,259.833771 
	C267.821075,243.732697 282.782104,227.629120 297.735168,211.518082 
	C300.360229,208.689713 302.714111,207.848801 306.637878,210.169098 
	C320.089783,218.123901 333.824951,225.604614 347.557800,233.071716 
	C348.915558,233.809982 351.570984,233.964691 352.657654,233.130829 
	C372.194183,218.139603 391.581696,202.954163 411.294342,187.581680 
	C409.600067,185.280762 407.927856,183.258087 406.535828,181.058136 
	C404.679504,178.124435 405.877136,175.172943 409.326385,174.912933 
	C415.953766,174.413376 422.616486,174.252014 429.265686,174.224182 
	C432.840790,174.209213 434.406250,176.330383 433.483154,179.872528 
	C431.932129,185.824234 430.377411,191.778687 428.629333,197.674194 
	C427.204163,202.480453 424.120728,203.049408 420.681335,199.247955 
	C419.235504,197.649902 417.958344,195.899246 416.319855,193.864502 
	C408.784180,199.735687 401.332581,205.541367 393.609314,211.579102 
z"/>
<path fill="#F58837" opacity="1.000000" stroke="none" 
	d="
M248.537872,291.019226 
	C248.543121,287.029846 248.588440,283.535797 248.541595,280.042969 
	C248.492111,276.351257 250.204437,274.468628 253.942749,274.473846 
	C263.757721,274.487549 273.572723,274.474548 283.387665,274.495605 
	C286.714966,274.502747 288.789734,275.907745 288.772705,279.533234 
	C288.754761,283.352325 286.655212,284.824432 283.050049,284.794250 
	C277.394257,284.746857 271.717255,284.518646 266.093536,284.947571 
	C264.331451,285.081970 262.711884,287.085358 261.027100,288.233246 
	C262.664154,289.468201 264.209534,291.587219 265.955872,291.768311 
	C270.729156,292.263336 275.589935,292.042816 280.410614,291.909271 
	C283.845551,291.814117 286.445312,292.539917 286.478943,296.612335 
	C286.513855,300.836914 283.911255,301.881744 280.226868,301.797363 
	C275.571289,301.690704 270.881439,301.472656 266.268036,301.927765 
	C264.440308,302.108063 261.546997,303.734192 261.286896,305.108582 
	C260.670227,308.366730 263.496887,308.978577 266.230988,308.973022 
	C272.053558,308.961243 277.876862,309.029419 283.698547,308.957001 
	C287.341675,308.911682 288.826782,310.776917 288.761810,314.199921 
	C288.700073,317.448730 287.082092,319.032471 283.768524,319.018402 
	C273.787109,318.975922 263.804596,318.932343 253.824188,319.041138 
	C249.857269,319.084412 248.527542,317.051025 248.538910,313.474518 
	C248.562180,306.154785 248.540558,298.834869 248.537872,291.019226 
z"/>
<path fill="#D86C27" opacity="1.000000" stroke="none" 
	d="
M146.782562,228.525482 
	C147.239548,227.219971 147.604568,226.281326 147.781433,225.308502 
	C148.883591,219.245819 150.332077,217.966873 156.257507,217.925568 
	C162.990356,217.878632 164.858780,219.179382 165.808899,225.333984 
	C166.467957,229.603165 168.743088,231.641205 172.908264,232.370209 
	C178.894760,233.417984 180.365768,235.429291 180.356598,241.527252 
	C180.347763,247.395844 179.020981,249.163376 173.179260,250.321045 
	C168.716095,251.205505 166.249405,253.398666 165.699020,258.207672 
	C165.106323,263.386322 162.462418,265.032349 156.552704,265.008820 
	C150.874374,264.986206 148.630402,263.434906 147.942917,258.287445 
	C147.288513,253.387756 144.653732,250.905960 139.913132,250.286026 
	C134.899567,249.630417 132.842407,246.671387 132.954575,241.701614 
	C133.087692,235.804733 134.609650,233.847092 139.814728,232.374527 
	C142.215424,231.695343 144.348953,230.071854 146.782562,228.525482 
z"/>
<path fill="#F58838" opacity="1.000000" stroke="none" 
	d="
M349.175964,291.335297 
	C353.680237,291.691864 357.828156,291.802063 361.973389,291.975952 
	C369.830719,292.305542 374.921600,297.648132 374.900330,305.495392 
	C374.879150,313.323395 369.752655,318.768738 361.899689,318.957336 
	C354.745453,319.129211 347.582550,318.916534 340.426483,319.043915 
	C336.708527,319.110077 334.852081,317.761597 334.902649,313.824951 
	C334.950500,310.095001 336.807434,308.887909 340.245087,308.947052 
	C345.903412,309.044403 351.585724,309.242157 357.212494,308.808228 
	C359.003082,308.670166 361.862610,306.879730 362.120117,305.461670 
	C362.739777,302.049622 359.747528,301.768982 357.091949,301.773010 
	C353.929352,301.777802 350.753265,301.925964 347.606659,301.692963 
	C339.764008,301.112305 335.055786,296.069183 334.956543,288.391541 
	C334.854065,280.465027 339.076508,275.318878 347.064423,274.778229 
	C354.687195,274.262238 362.364288,274.498993 370.017426,274.504303 
	C373.536652,274.506744 375.061249,276.454468 374.931000,279.949615 
	C374.806641,283.287354 373.064453,284.763641 369.875549,284.774597 
	C363.882629,284.795227 357.886230,284.667633 351.897797,284.834656 
	C347.164978,284.966614 346.283356,286.941101 349.175964,291.335297 
z"/>
<path fill="#F58736" opacity="1.000000" stroke="none" 
	d="
M324.358093,314.263184 
	C320.545349,316.029907 317.099243,318.140533 313.389038,318.830231 
	C309.368164,319.577698 305.100739,318.967834 300.941559,319.012329 
	C297.691681,319.047089 295.947601,317.625000 295.951141,314.258820 
	C295.963440,302.611725 295.985291,290.964447 295.932983,279.317596 
	C295.918976,276.196106 297.448181,274.567535 300.414368,274.560699 
	C305.728973,274.548492 311.220734,274.002167 316.297791,275.165680 
	C319.767853,275.960907 324.558807,278.680817 325.470734,281.576050 
	C328.833282,292.251801 329.619446,303.314240 324.358093,314.263184 
M313.263184,285.170898 
	C310.489410,284.352325 308.347137,285.322418 308.202698,288.171478 
	C307.909882,293.948547 307.947815,299.760895 308.271515,305.535034 
	C308.336456,306.692596 310.194824,308.490631 311.383789,308.627747 
	C312.488190,308.755096 314.861908,307.052643 314.856812,306.166321 
	C314.817322,299.327393 314.335236,292.491028 313.263184,285.170898 
z"/>
<path fill="#F58837" opacity="1.000000" stroke="none" 
	d="
M413.919495,290.319275 
	C413.920990,295.280731 413.615143,299.808411 414.088806,304.253082 
	C414.263580,305.892944 416.275208,307.337097 417.449036,308.870514 
	C418.641266,307.346375 420.212738,305.975189 420.908295,304.250732 
	C421.486389,302.817444 421.028992,300.968689 421.039856,299.304016 
	C421.079041,293.309448 423.180206,291.239624 428.908813,292.526459 
	C430.561584,292.897675 432.806274,295.289612 432.943970,296.911041 
	C433.435303,302.695862 433.108795,308.547943 433.148834,314.374176 
	C433.170013,317.458374 431.761200,319.021149 428.638672,319.002716 
	C423.811310,318.974213 418.972931,319.167877 414.158997,318.905060 
	C407.456696,318.539154 402.401794,313.971222 401.985992,307.291809 
	C401.542938,300.174286 401.590881,292.986267 402.029724,285.866364 
	C402.382812,280.137299 406.509216,275.745667 412.144318,275.091888 
	C417.732544,274.443512 423.426849,274.576385 429.073029,274.612732 
	C432.203735,274.632874 433.205688,276.716278 433.186737,279.681274 
	C433.167664,282.669891 432.042938,284.560974 428.964661,284.717316 
	C425.809387,284.877594 422.635651,284.893188 419.479309,284.756927 
	C415.817627,284.598846 413.663635,285.849579 413.919495,290.319275 
z"/>
<path fill="#F58837" opacity="1.000000" stroke="none" 
	d="
M382.254761,277.796814 
	C384.537445,273.246765 388.430145,273.953064 391.479675,275.144989 
	C392.948486,275.719086 394.036713,279.052948 394.088043,281.166534 
	C394.346497,291.803284 394.097107,302.451355 394.259766,313.091888 
	C394.323944,317.289276 392.900818,319.128265 388.491486,319.098358 
	C384.201385,319.069183 381.954803,317.835785 382.026001,313.132904 
	C382.202240,301.495209 382.128113,289.853699 382.254761,277.796814 
z"/>
<path fill="#FFF3E5" opacity="1.000000" stroke="none" 
	d="
M313.626770,285.412384 
	C314.335236,292.491028 314.817322,299.327393 314.856812,306.166321 
	C314.861908,307.052643 312.488190,308.755096 311.383789,308.627747 
	C310.194824,308.490631 308.336456,306.692596 308.271515,305.535034 
	C307.947815,299.760895 307.909882,293.948547 308.202698,288.171478 
	C308.347137,285.322418 310.489410,284.352325 313.626770,285.412384 
z"/>
</svg>